<?xml version="1.0" encoding="UTF-8" standalone="no"?>
<!DOCTYPE svg PUBLIC "-//W3C//DTD SVG 1.1//EN" "http://www.w3.org/Graphics/SVG/1.1/DTD/svg11.dtd">
<svg width="100%" height="100%" viewBox="0 0 1000 1000" version="1.1" xmlns="http://www.w3.org/2000/svg" xmlns:xlink="http://www.w3.org/1999/xlink" xml:space="preserve" xmlns:serif="http://www.serif.com/" style="fill-rule:evenodd;clip-rule:evenodd;stroke-linejoin:round;stroke-miterlimit:2;">
    <g>
        <g id="Layer-1" serif:id="Layer 1">
            <g>
                <path d="M814.127,336.006C776.756,321.876 711.68,306.03 607.766,306.03C364.054,306.03 206.653,434.842 199.773,452.243L355.851,452.243L430.089,378.005L570.488,378.005C574.217,369.182 583.1,363.066 593.368,363.457C605.635,363.922 615.788,374.074 616.254,386.341C616.771,399.927 605.909,411.102 592.441,411.102C582.564,411.102 574.093,405.095 570.476,396.535L437.764,396.535L382.057,452.243L436.177,452.243C440.218,442.676 450.328,436.296 461.683,437.932C472.25,439.454 480.645,448.176 481.821,458.787C483.414,473.166 472.198,485.339 458.139,485.339C448.264,485.339 439.793,479.332 436.177,470.772L174.736,470.772C154.424,481.001 135.893,490.815 119.522,499.782L188.177,499.782L234.494,546.098L353.689,546.098C357.732,536.529 367.84,530.152 379.195,531.788C389.762,533.31 398.157,542.03 399.333,552.641C400.926,567.02 389.712,579.195 375.653,579.195C365.776,579.195 357.305,573.186 353.689,564.628L226.817,564.628L180.502,518.311L86.559,518.311C78.765,522.81 71.848,526.888 65.904,530.447C52.04,538.747 48.161,557.071 57.461,570.286L86.991,612.252L59.929,662.58C55.949,669.979 61.309,678.946 69.709,678.946L590.052,678.946C601.928,656.865 604.424,652.223 616.3,630.144C598.277,602.485 587.803,569.457 587.803,533.983C587.803,438.089 664.289,358.845 759.618,357.625C770.422,357.486 790.858,357.471 810.17,357.497C822.524,357.513 825.682,340.375 814.127,336.006" style="fill:white;fill-rule:nonzero;"/>
            </g>
            <g>
                <path d="M764.22,593.183C731.524,593.183 705.019,566.677 705.019,533.981C705.019,501.285 731.524,474.78 764.22,474.78C796.916,474.78 823.422,501.285 823.422,533.981C823.422,566.677 796.916,593.183 764.22,593.183M921.461,516.459C917.76,516.459 914.568,513.788 913.991,510.131C910.184,486.051 900.715,463.866 886.985,444.966C884.806,441.963 885.162,437.821 887.786,435.198L887.799,435.185C890.763,432.22 890.763,427.412 887.799,424.446L873.755,410.404C870.79,407.439 865.982,407.439 863.016,410.404L863.005,410.417C860.383,413.04 856.24,413.397 853.238,411.217C834.335,397.486 812.151,388.017 788.07,384.212C784.413,383.633 781.743,380.444 781.743,376.739C781.743,372.546 778.344,369.146 774.151,369.146L754.29,369.146C750.097,369.146 746.696,372.546 746.696,376.739C746.696,380.444 744.029,383.633 740.37,384.212C716.29,388.017 694.105,397.486 675.205,411.217C672.204,413.397 668.061,413.04 665.436,410.417L665.424,410.404C662.459,407.439 657.651,407.439 654.687,410.404L640.643,424.446C637.678,427.412 637.678,432.22 640.643,435.185L640.656,435.198C643.279,437.821 643.636,441.965 641.456,444.966C627.725,463.866 618.256,486.051 614.449,510.131C613.872,513.788 610.683,516.459 606.979,516.459C602.785,516.459 599.385,519.858 599.385,524.053L599.385,543.912C599.385,548.105 602.785,551.506 606.979,551.506C610.683,551.506 613.872,554.174 614.449,557.833C618.256,581.912 627.725,604.096 641.456,622.999C643.636,625.999 643.279,630.142 640.656,632.766L640.643,632.779C637.678,635.743 637.678,640.551 640.643,643.516L654.687,657.56C657.651,660.525 662.459,660.525 665.424,657.56L665.436,657.547C668.061,654.923 672.204,654.567 675.205,656.746C694.105,670.476 716.29,679.947 740.37,683.752C744.029,684.329 746.696,687.521 746.696,691.224C746.696,695.419 750.097,698.818 754.29,698.818L774.151,698.818C778.344,698.818 781.743,695.419 781.743,691.224C781.743,687.521 784.413,684.329 788.07,683.752C812.151,679.947 834.335,670.476 853.238,656.746C856.24,654.567 860.383,654.923 863.005,657.547L863.016,657.56C865.982,660.525 870.79,660.525 873.755,657.56L887.799,643.516C890.763,640.551 890.763,635.744 887.799,632.779L887.786,632.766C885.162,630.142 884.806,625.999 886.985,622.999C900.715,604.096 910.184,581.912 913.991,557.833C914.568,554.174 917.76,551.506 921.461,551.506C925.656,551.506 929.055,548.105 929.055,543.912L929.055,524.053C929.055,519.858 925.656,516.459 921.461,516.459" style="fill:white;fill-rule:nonzero;"/>
            </g>
        </g>
    </g>
</svg>
